{
	"asset":{
		"generator":"Khronos glTF Blender I/O v4.2.60",
		"version":"2.0"
	},
	"extensionsUsed":[
		"KHR_materials_clearcoat",
		"KHR_materials_specular",
		"KHR_materials_ior",
		"KHR_lights_punctual"
	],
	"extensionsRequired":[
		"KHR_lights_punctual"
	],
	"extensions":{
		"KHR_lights_punctual":{
			"lights":[
				{
					"color":[
						0.7230551242828369,
						1,
						0.49693313241004944
					],
					"intensity":3415,
					"type":"directional",
					"name":"Sun"
				},
				{
					"color":[
						0.9163454174995422,
						1,
						0.9368600249290466
					],
					"intensity":10245,
					"type":"directional",
					"name":"Sun.001"
				},
				{
					"color":[
						0.6611613631248474,
						1,
						0.8282555341720581
					],
					"intensity":3415,
					"type":"directional",
					"name":"Sun.002"
				}
			]
		}
	},
	"scene":0,
	"scenes":[
		{
			"name":"Scene",
			"nodes":[
				0,
				1,
				2,
				3,
				4,
				5,
				6,
				7,
				8,
				9,
				10
			]
		}
	],
	"nodes":[
		{
			"mesh":0,
			"name":"base"
		},
		{
			"extensions":{
				"KHR_lights_punctual":{
					"light":0
				}
			},
			"name":"Sun",
			"rotation":[
				-0.6120511293411255,
				-0.5297393798828125,
				0.5412265658378601,
				0.2276916205883026
			],
			"scale":[
				0.943034291267395,
				0.9430342316627502,
				0.9430342316627502
			],
			"translation":[
				-7.682205677032471,
				-1.0963643789291382,
				-4.017394065856934
			]
		},
		{
			"extensions":{
				"KHR_lights_punctual":{
					"light":1
				}
			},
			"name":"Sun.001",
			"rotation":[
				-0.2991669178009033,
				-0.2628524601459503,
				-0.07968656718730927,
				0.9138150215148926
			],
			"translation":[
				-3.281465768814087,
				5.534883499145508,
				6.704843997955322
			]
		},
		{
			"mesh":1,
			"name":"cap",
			"scale":[
				1.69704008102417,
				1.3955378532409668,
				1.69704008102417
			],
			"translation":[
				0,
				0.9275950789451599,
				0
			]
		},
		{
			"camera":0,
			"name":"Camera",
			"rotation":[
				-0.2798481285572052,
				-0.3647052049636841,
				-0.1159168928861618,
				0.8804762363433838
			],
			"translation":[
				-10,
				10,
				10
			]
		},
		{
			"extensions":{
				"KHR_lights_punctual":{
					"light":2
				}
			},
			"name":"Sun.002",
			"rotation":[
				0.5697851181030273,
				0.6542503833770752,
				0.46323060989379883,
				0.18088313937187195
			],
			"scale":[
				0.943034291267395,
				0.9430342316627502,
				0.9430342316627502
			],
			"translation":[
				3.9452946186065674,
				3.096439838409424,
				-1.955428123474121
			]
		},
		{
			"mesh":2,
			"name":"stick",
			"scale":[
				1.69704008102417,
				1.69704008102417,
				1.69704008102417
			],
			"translation":[
				0,
				0.5761655569076538,
				0
			]
		},
		{
			"mesh":3,
			"name":"sticky-note",
			"rotation":[
				0.08808355778455734,
				0.24370135366916656,
				0.3283076286315918,
				0.9083309173583984
			],
			"scale":[
				1.2000000476837158,
				1.2000000476837158,
				1.2000000476837158
			],
			"translation":[
				-0.6302508115768433,
				1.5059758424758911,
				0.4381985664367676
			]
		},
		{
			"mesh":4,
			"name":"Cylinder",
			"translation":[
				-0.699999988079071,
				0.23246723413467407,
				-0.699999988079071
			]
		},
		{
			"mesh":5,
			"name":"led-off",
			"translation":[
				-0.699999988079071,
				0.23246723413467407,
				-0.699999988079071
			]
		},
		{
			"mesh":6,
			"name":"led-on",
			"translation":[
				-0.699999988079071,
				0.23246723413467407,
				-0.699999988079071
			]
		}
	],
	"cameras":[
		{
			"name":"Camera.001",
			"orthographic":{
				"xmag":2,
				"ymag":2,
				"zfar":1000,
				"znear":0.10000000149011612
			},
			"type":"orthographic"
		}
	],
	"materials":[
		{
			"doubleSided":true,
			"extensions":{
				"KHR_materials_specular":{
					"specularFactor":0
				},
				"KHR_materials_ior":{
					"ior":1.4500000476837158
				}
			},
			"name":"black",
			"pbrMetallicRoughness":{
				"baseColorFactor":[
					0.01254693977534771,
					0.011710423976182938,
					0.013410423882305622,
					1
				],
				"metallicFactor":0
			}
		},
		{
			"doubleSided":true,
			"extensions":{
				"KHR_materials_specular":{
					"specularFactor":0
				},
				"KHR_materials_ior":{
					"ior":1.4500000476837158
				}
			},
			"name":"white",
			"pbrMetallicRoughness":{
				"baseColorFactor":[
					0.049196090549230576,
					0.05221778154373169,
					0.05087028816342354,
					1
				],
				"metallicFactor":0
			}
		},
		{
			"doubleSided":true,
			"extensions":{
				"KHR_materials_specular":{
					"specularFactor":0.11764705181121826
				},
				"KHR_materials_ior":{
					"ior":1.4500000476837158
				}
			},
			"name":"red",
			"pbrMetallicRoughness":{
				"baseColorFactor":[
					0.09462487697601318,
					0.002182362135499716,
					0,
					1
				],
				"metallicFactor":0.6764705777168274,
				"roughnessFactor":0.49264705181121826
			}
		},
		{
			"doubleSided":true,
			"extensions":{
				"KHR_materials_clearcoat":{
					"clearcoatRoughnessFactor":0.669705867767334
				},
				"KHR_materials_specular":{
					"specularFactor":0
				},
				"KHR_materials_ior":{
					"ior":1.4500000476837158
				}
			},
			"name":"sticky",
			"pbrMetallicRoughness":{
				"baseColorTexture":{
					"index":0
				},
				"metallicFactor":0,
				"roughnessFactor":0.6397058367729187
			}
		},
		{
			"doubleSided":true,
			"name":"led-off",
			"pbrMetallicRoughness":{
				"baseColorFactor":[
					0.8000000715255737,
					0,
					0.0013953959569334984,
					1
				],
				"metallicFactor":0,
				"roughnessFactor":0.5
			}
		},
		{
			"doubleSided":true,
			"name":"Material",
			"pbrMetallicRoughness":{
				"baseColorFactor":[
					0.031948912888765335,
					0.8000000715255737,
					0,
					1
				],
				"metallicFactor":0,
				"roughnessFactor":0.5
			}
		}
	],
	"meshes":[
		{
			"name":"Plane",
			"primitives":[
				{
					"attributes":{
						"POSITION":0,
						"NORMAL":1,
						"TEXCOORD_0":2,
						"TANGENT":3
					},
					"indices":4,
					"material":0
				},
				{
					"attributes":{
						"POSITION":5,
						"NORMAL":6,
						"TEXCOORD_0":7,
						"TANGENT":8
					},
					"indices":9,
					"material":1
				}
			]
		},
		{
			"name":"Icosphere",
			"primitives":[
				{
					"attributes":{
						"POSITION":10,
						"NORMAL":11,
						"TEXCOORD_0":12,
						"TANGENT":13
					},
					"indices":14,
					"material":2
				}
			]
		},
		{
			"name":"Icosphere.001",
			"primitives":[
				{
					"attributes":{
						"POSITION":15,
						"NORMAL":16,
						"TEXCOORD_0":17,
						"TANGENT":18
					},
					"indices":19,
					"material":1
				},
				{
					"attributes":{
						"POSITION":20,
						"NORMAL":21,
						"TEXCOORD_0":22,
						"TANGENT":23
					},
					"indices":24,
					"material":0
				}
			]
		},
		{
			"name":"Plane.001",
			"primitives":[
				{
					"attributes":{
						"POSITION":25,
						"NORMAL":26,
						"TEXCOORD_0":27,
						"TANGENT":28
					},
					"indices":29,
					"material":3
				}
			]
		},
		{
			"name":"Cylinder",
			"primitives":[
				{
					"attributes":{
						"POSITION":30,
						"NORMAL":31,
						"TEXCOORD_0":32,
						"TANGENT":33
					},
					"indices":34,
					"material":0
				}
			]
		},
		{
			"name":"Cylinder.001",
			"primitives":[
				{
					"attributes":{
						"POSITION":35,
						"NORMAL":36,
						"TEXCOORD_0":37,
						"TANGENT":38
					},
					"indices":39,
					"material":4
				}
			]
		},
		{
			"name":"Cylinder.002",
			"primitives":[
				{
					"attributes":{
						"POSITION":40,
						"NORMAL":41,
						"TEXCOORD_0":42,
						"TANGENT":43
					},
					"indices":39,
					"material":5
				}
			]
		}
	],
	"textures":[
		{
			"sampler":0,
			"source":0
		}
	],
	"images":[
		{
			"mimeType":"image/png",
			"name":"sticky",
			"uri":"../../assets/blender/textures/sticky.png"
		}
	],
	"accessors":[
		{
			"bufferView":0,
			"componentType":5126,
			"count":421,
			"max":[
				1.0630046129226685,
				0.5759958624839783,
				1.0630046129226685
			],
			"min":[
				-1.0630046129226685,
				-0.21304874122142792,
				-1.0630046129226685
			],
			"type":"VEC3"
		},
		{
			"bufferView":1,
			"componentType":5126,
			"count":421,
			"type":"VEC3"
		},
		{
			"bufferView":2,
			"componentType":5126,
			"count":421,
			"type":"VEC2"
		},
		{
			"bufferView":3,
			"componentType":5126,
			"count":421,
			"type":"VEC4"
		},
		{
			"bufferView":4,
			"componentType":5123,
			"count":1656,
			"type":"SCALAR"
		},
		{
			"bufferView":5,
			"componentType":5126,
			"count":344,
			"max":[
				1,
				0.2731386721134186,
				1
			],
			"min":[
				-1,
				-0.6377900838851929,
				-1
			],
			"type":"VEC3"
		},
		{
			"bufferView":6,
			"componentType":5126,
			"count":344,
			"type":"VEC3"
		},
		{
			"bufferView":7,
			"componentType":5126,
			"count":344,
			"type":"VEC2"
		},
		{
			"bufferView":8,
			"componentType":5126,
			"count":344,
			"type":"VEC4"
		},
		{
			"bufferView":9,
			"componentType":5123,
			"count":1200,
			"type":"SCALAR"
		},
		{
			"bufferView":10,
			"componentType":5126,
			"count":164,
			"max":[
				0.6492217779159546,
				0.4649702310562134,
				0.6852765679359436
			],
			"min":[
				-0.6573963761329651,
				-0.05054444074630737,
				-0.6885810494422913
			],
			"type":"VEC3"
		},
		{
			"bufferView":11,
			"componentType":5126,
			"count":164,
			"type":"VEC3"
		},
		{
			"bufferView":12,
			"componentType":5126,
			"count":164,
			"type":"VEC2"
		},
		{
			"bufferView":13,
			"componentType":5126,
			"count":164,
			"type":"VEC4"
		},
		{
			"bufferView":14,
			"componentType":5123,
			"count":780,
			"type":"SCALAR"
		},
		{
			"bufferView":15,
			"componentType":5126,
			"count":119,
			"max":[
				0.15938133001327515,
				0.2767598628997803,
				0.1675831526517868
			],
			"min":[
				-0.15938130021095276,
				-0.5551305413246155,
				-0.1675831824541092
			],
			"type":"VEC3"
		},
		{
			"bufferView":16,
			"componentType":5126,
			"count":119,
			"type":"VEC3"
		},
		{
			"bufferView":17,
			"componentType":5126,
			"count":119,
			"type":"VEC2"
		},
		{
			"bufferView":18,
			"componentType":5126,
			"count":119,
			"type":"VEC4"
		},
		{
			"bufferView":19,
			"componentType":5123,
			"count":450,
			"type":"SCALAR"
		},
		{
			"bufferView":20,
			"componentType":5126,
			"count":65,
			"max":[
				0.12139174342155457,
				0.3069521486759186,
				0.12763860821723938
			],
			"min":[
				-0.12139171361923218,
				0.2767598628997803,
				-0.12763862311840057
			],
			"type":"VEC3"
		},
		{
			"bufferView":21,
			"componentType":5126,
			"count":65,
			"type":"VEC3"
		},
		{
			"bufferView":22,
			"componentType":5126,
			"count":65,
			"type":"VEC2"
		},
		{
			"bufferView":23,
			"componentType":5126,
			"count":65,
			"type":"VEC4"
		},
		{
			"bufferView":24,
			"componentType":5123,
			"count":210,
			"type":"SCALAR"
		},
		{
			"bufferView":25,
			"componentType":5126,
			"count":56,
			"max":[
				0.13594569265842438,
				0.5484628081321716,
				0.5999999642372131
			],
			"min":[
				-1.1764743328094482,
				-0.0013784944312646985,
				-0.6000000238418579
			],
			"type":"VEC3"
		},
		{
			"bufferView":26,
			"componentType":5126,
			"count":56,
			"type":"VEC3"
		},
		{
			"bufferView":27,
			"componentType":5126,
			"count":56,
			"type":"VEC2"
		},
		{
			"bufferView":28,
			"componentType":5126,
			"count":56,
			"type":"VEC4"
		},
		{
			"bufferView":29,
			"componentType":5123,
			"count":252,
			"type":"SCALAR"
		},
		{
			"bufferView":30,
			"componentType":5126,
			"count":294,
			"max":[
				0.149428591132164,
				0.06871840357780457,
				0.1494286209344864
			],
			"min":[
				-0.14942869544029236,
				0.03346605226397514,
				-0.14942866563796997
			],
			"type":"VEC3"
		},
		{
			"bufferView":31,
			"componentType":5126,
			"count":294,
			"type":"VEC3"
		},
		{
			"bufferView":32,
			"componentType":5126,
			"count":294,
			"type":"VEC2"
		},
		{
			"bufferView":33,
			"componentType":5126,
			"count":294,
			"type":"VEC4"
		},
		{
			"bufferView":34,
			"componentType":5123,
			"count":480,
			"type":"SCALAR"
		},
		{
			"bufferView":35,
			"componentType":5126,
			"count":48,
			"max":[
				0.10904194414615631,
				0.16321921348571777,
				0.11465337127447128
			],
			"min":[
				-0.10904190689325333,
				0.03697136417031288,
				-0.1146533340215683
			],
			"type":"VEC3"
		},
		{
			"bufferView":36,
			"componentType":5126,
			"count":48,
			"type":"VEC3"
		},
		{
			"bufferView":37,
			"componentType":5126,
			"count":48,
			"type":"VEC2"
		},
		{
			"bufferView":38,
			"componentType":5126,
			"count":48,
			"type":"VEC4"
		},
		{
			"bufferView":39,
			"componentType":5123,
			"count":180,
			"type":"SCALAR"
		},
		{
			"bufferView":40,
			"componentType":5126,
			"count":48,
			"max":[
				0.10904194414615631,
				0.16321921348571777,
				0.11465337127447128
			],
			"min":[
				-0.10904190689325333,
				0.03697136417031288,
				-0.1146533340215683
			],
			"type":"VEC3"
		},
		{
			"bufferView":41,
			"componentType":5126,
			"count":48,
			"type":"VEC3"
		},
		{
			"bufferView":42,
			"componentType":5126,
			"count":48,
			"type":"VEC2"
		},
		{
			"bufferView":43,
			"componentType":5126,
			"count":48,
			"type":"VEC4"
		}
	],
	"bufferViews":[
		{
			"buffer":0,
			"byteLength":5052,
			"byteOffset":0,
			"target":34962
		},
		{
			"buffer":0,
			"byteLength":5052,
			"byteOffset":5052,
			"target":34962
		},
		{
			"buffer":0,
			"byteLength":3368,
			"byteOffset":10104,
			"target":34962
		},
		{
			"buffer":0,
			"byteLength":6736,
			"byteOffset":13472,
			"target":34962
		},
		{
			"buffer":0,
			"byteLength":3312,
			"byteOffset":20208,
			"target":34963
		},
		{
			"buffer":0,
			"byteLength":4128,
			"byteOffset":23520,
			"target":34962
		},
		{
			"buffer":0,
			"byteLength":4128,
			"byteOffset":27648,
			"target":34962
		},
		{
			"buffer":0,
			"byteLength":2752,
			"byteOffset":31776,
			"target":34962
		},
		{
			"buffer":0,
			"byteLength":5504,
			"byteOffset":34528,
			"target":34962
		},
		{
			"buffer":0,
			"byteLength":2400,
			"byteOffset":40032,
			"target":34963
		},
		{
			"buffer":0,
			"byteLength":1968,
			"byteOffset":42432,
			"target":34962
		},
		{
			"buffer":0,
			"byteLength":1968,
			"byteOffset":44400,
			"target":34962
		},
		{
			"buffer":0,
			"byteLength":1312,
			"byteOffset":46368,
			"target":34962
		},
		{
			"buffer":0,
			"byteLength":2624,
			"byteOffset":47680,
			"target":34962
		},
		{
			"buffer":0,
			"byteLength":1560,
			"byteOffset":50304,
			"target":34963
		},
		{
			"buffer":0,
			"byteLength":1428,
			"byteOffset":51864,
			"target":34962
		},
		{
			"buffer":0,
			"byteLength":1428,
			"byteOffset":53292,
			"target":34962
		},
		{
			"buffer":0,
			"byteLength":952,
			"byteOffset":54720,
			"target":34962
		},
		{
			"buffer":0,
			"byteLength":1904,
			"byteOffset":55672,
			"target":34962
		},
		{
			"buffer":0,
			"byteLength":900,
			"byteOffset":57576,
			"target":34963
		},
		{
			"buffer":0,
			"byteLength":780,
			"byteOffset":58476,
			"target":34962
		},
		{
			"buffer":0,
			"byteLength":780,
			"byteOffset":59256,
			"target":34962
		},
		{
			"buffer":0,
			"byteLength":520,
			"byteOffset":60036,
			"target":34962
		},
		{
			"buffer":0,
			"byteLength":1040,
			"byteOffset":60556,
			"target":34962
		},
		{
			"buffer":0,
			"byteLength":420,
			"byteOffset":61596,
			"target":34963
		},
		{
			"buffer":0,
			"byteLength":672,
			"byteOffset":62016,
			"target":34962
		},
		{
			"buffer":0,
			"byteLength":672,
			"byteOffset":62688,
			"target":34962
		},
		{
			"buffer":0,
			"byteLength":448,
			"byteOffset":63360,
			"target":34962
		},
		{
			"buffer":0,
			"byteLength":896,
			"byteOffset":63808,
			"target":34962
		},
		{
			"buffer":0,
			"byteLength":504,
			"byteOffset":64704,
			"target":34963
		},
		{
			"buffer":0,
			"byteLength":3528,
			"byteOffset":65208,
			"target":34962
		},
		{
			"buffer":0,
			"byteLength":3528,
			"byteOffset":68736,
			"target":34962
		},
		{
			"buffer":0,
			"byteLength":2352,
			"byteOffset":72264,
			"target":34962
		},
		{
			"buffer":0,
			"byteLength":4704,
			"byteOffset":74616,
			"target":34962
		},
		{
			"buffer":0,
			"byteLength":960,
			"byteOffset":79320,
			"target":34963
		},
		{
			"buffer":0,
			"byteLength":576,
			"byteOffset":80280,
			"target":34962
		},
		{
			"buffer":0,
			"byteLength":576,
			"byteOffset":80856,
			"target":34962
		},
		{
			"buffer":0,
			"byteLength":384,
			"byteOffset":81432,
			"target":34962
		},
		{
			"buffer":0,
			"byteLength":768,
			"byteOffset":81816,
			"target":34962
		},
		{
			"buffer":0,
			"byteLength":360,
			"byteOffset":82584,
			"target":34963
		},
		{
			"buffer":0,
			"byteLength":576,
			"byteOffset":82944,
			"target":34962
		},
		{
			"buffer":0,
			"byteLength":576,
			"byteOffset":83520,
			"target":34962
		},
		{
			"buffer":0,
			"byteLength":384,
			"byteOffset":84096,
			"target":34962
		},
		{
			"buffer":0,
			"byteLength":768,
			"byteOffset":84480,
			"target":34962
		}
	],
	"samplers":[
		{
			"magFilter":9729,
			"minFilter":9987
		}
	],
	"buffers":[
		{
			"byteLength":85248,
			"uri":"button-bc3930cf20bb6ef9a32c20ca4c1b091c.bin"
		}
	]
}
